<mxfile host="app.diagrams.net" modified="2023-02-23T01:35:46.982Z" agent="5.0 (Windows NT 10.0; Win64; x64) AppleWebKit/537.36 (KHTML, like Gecko) Chrome/110.0.0.0 Safari/537.36 Edg/110.0.1587.46" etag="xL3F4mnNY4IWwx2iyUmK" version="20.8.23" type="github">
  <diagram name="Strona-1" id="jzU_CwaTyrlF2SyCXXXr">
    <mxGraphModel dx="955" dy="700" grid="1" gridSize="10" guides="1" tooltips="1" connect="1" arrows="1" fold="1" page="1" pageScale="1" pageWidth="827" pageHeight="1169" math="0" shadow="0">
      <root>
        <mxCell id="0" />
        <mxCell id="1" parent="0" />
        <mxCell id="hF1T8_iq52JqmMSs-Rl2-1" value="User Management Module" style="rounded=0;whiteSpace=wrap;html=1;sketch=1;hachureGap=4;jiggle=2;curveFitting=1;fontFamily=Architects Daughter;fontSource=https%3A%2F%2Ffonts.googleapis.com%2Fcss%3Ffamily%3DArchitects%2BDaughter;fontSize=20;" vertex="1" parent="1">
          <mxGeometry x="210" y="80" width="400" height="60" as="geometry" />
        </mxCell>
        <mxCell id="hF1T8_iq52JqmMSs-Rl2-2" value="Meal Planning and Generation Module" style="rounded=0;whiteSpace=wrap;html=1;sketch=1;hachureGap=4;jiggle=2;curveFitting=1;fontFamily=Architects Daughter;fontSource=https%3A%2F%2Ffonts.googleapis.com%2Fcss%3Ffamily%3DArchitects%2BDaughter;fontSize=20;" vertex="1" parent="1">
          <mxGeometry x="210" y="210" width="400" height="60" as="geometry" />
        </mxCell>
        <mxCell id="hF1T8_iq52JqmMSs-Rl2-3" value="Grocery Lists &lt;br&gt;and Product&lt;br&gt;Recommendations Module" style="rounded=0;whiteSpace=wrap;html=1;sketch=1;hachureGap=4;jiggle=2;curveFitting=1;fontFamily=Architects Daughter;fontSource=https%3A%2F%2Ffonts.googleapis.com%2Fcss%3Ffamily%3DArchitects%2BDaughter;fontSize=20;" vertex="1" parent="1">
          <mxGeometry x="100" y="360" width="190" height="170" as="geometry" />
        </mxCell>
        <mxCell id="hF1T8_iq52JqmMSs-Rl2-5" value="Recipe &lt;br&gt;Module" style="rounded=0;whiteSpace=wrap;html=1;sketch=1;hachureGap=4;jiggle=2;curveFitting=1;fontFamily=Architects Daughter;fontSource=https%3A%2F%2Ffonts.googleapis.com%2Fcss%3Ffamily%3DArchitects%2BDaughter;fontSize=20;" vertex="1" parent="1">
          <mxGeometry x="360" y="360" width="100" height="160" as="geometry" />
        </mxCell>
        <mxCell id="hF1T8_iq52JqmMSs-Rl2-7" value="Sharing Module" style="rounded=0;whiteSpace=wrap;html=1;sketch=1;hachureGap=4;jiggle=2;curveFitting=1;fontFamily=Architects Daughter;fontSource=https%3A%2F%2Ffonts.googleapis.com%2Fcss%3Ffamily%3DArchitects%2BDaughter;fontSize=20;" vertex="1" parent="1">
          <mxGeometry x="560" y="360" width="100" height="160" as="geometry" />
        </mxCell>
        <mxCell id="hF1T8_iq52JqmMSs-Rl2-12" value=" Delivery and Payment Module" style="rounded=0;whiteSpace=wrap;html=1;sketch=1;hachureGap=4;jiggle=2;curveFitting=1;fontFamily=Architects Daughter;fontSource=https%3A%2F%2Ffonts.googleapis.com%2Fcss%3Ffamily%3DArchitects%2BDaughter;fontSize=20;" vertex="1" parent="1">
          <mxGeometry x="414" y="560" width="180" height="120" as="geometry" />
        </mxCell>
      </root>
    </mxGraphModel>
  </diagram>
</mxfile>
